<?xml version="1.0" standalone="no"?>
<!DOCTYPE svg PUBLIC "-//W3C//DTD SVG 20010904//EN"
 "http://www.w3.org/TR/2001/REC-SVG-20010904/DTD/svg10.dtd">
<svg version="1.0" xmlns="http://www.w3.org/2000/svg"
 width="260.000000pt" height="260.000000pt" viewBox="0 0 260.000000 260.000000"
 preserveAspectRatio="xMidYMid meet">
<metadata>
Created by potrace 1.11, written by Peter Selinger 2001-2013
</metadata>
<g transform="translate(0.000000,260.000000) scale(0.100000,-0.100000)"
fill="#000000" stroke="none">
<path d="M0 1300 l0 -1300 1300 0 1300 0 0 1300 0 1300 -1300 0 -1300 0 0
-1300z m1960 583 c121 -33 227 -121 276 -228 38 -83 36 -86 -91 -111 -61 -12
-113 -20 -117 -17 -5 2 -8 12 -8 22 0 10 -13 37 -30 59 -75 104 -249 123 -335
36 -30 -29 -35 -42 -35 -80 0 -90 19 -102 243 -148 200 -41 269 -70 336 -141
63 -67 86 -135 79 -241 -14 -211 -183 -335 -458 -335 -116 0 -190 16 -278 59
-104 51 -190 160 -195 250 l-2 36 110 22 c61 13 115 23 120 24 6 0 17 -16 24
-36 18 -50 69 -104 119 -127 56 -24 181 -26 235 -4 78 33 112 102 84 170 -22
51 -66 70 -242 102 -176 33 -238 53 -300 95 -89 62 -126 138 -126 264 -1 71 3
87 33 145 58 114 169 183 322 200 87 9 163 4 236 -16z m-700 -113 l0 -110
-190 0 -190 0 0 -470 0 -470 -120 0 -120 0 0 470 0 470 -190 0 -190 0 0 110 0
110 500 0 500 0 0 -110z"/>
</g>
</svg>
