<svg id="Layer_1" data-name="Layer 1" xmlns="http://www.w3.org/2000/svg" viewBox="0 0 70 60"><defs><style>.cls-1{fill:#d9d9d9;}.cls-2{fill:#fffffe;}.cls-3{fill:#3971ff;}.cls-4{fill:#64faed;}</style></defs><title>icon-design-2</title><g id="Page-1"><g id="print-icon"><g id="Fill-339"><polygon class="cls-1" points="0.07 59.93 54.38 59.93 54.38 18.15 0.07 18.15 0.07 59.93"/></g><g id="Fill-341"><polygon class="cls-2" points="11.56 48.44 63.78 48.44 63.78 8.75 11.56 8.75 11.56 48.44"/></g><g id="Fill-342"><polygon class="cls-1" points="14.69 45.3 60.65 45.3 60.65 11.88 14.69 11.88 14.69 45.3"/></g><g id="Fill-343"><polyline class="cls-3" points="40.8 45.3 14.69 45.3 14.69 35.91 23.05 27.55 40.8 45.3"/></g><g id="Fill-344"><polyline class="cls-4" points="40.8 45.3 32.45 36.95 51.25 18.15 60.65 27.55 60.65 45.3 40.8 45.3"/></g><g id="Fill-345"><path d="M36.63,20.24a4.18,4.18,0,1,1-4.18-4.18,4.18,4.18,0,0,1,4.18,4.18"/></g><polygon points="2.23 55.75 0 55.75 0 60 4.25 60 4.25 57.77 2.23 57.77 2.23 55.75"/><rect x="6.34" y="57.77" width="4.18" height="2.23"/><rect x="12.61" y="57.77" width="4.18" height="2.23"/><polygon points="0 22.33 2.23 22.33 2.23 20.31 4.25 20.31 4.25 18.07 0 18.07 0 22.33"/><rect y="30.68" width="2.23" height="4.18"/><rect y="24.42" width="2.23" height="4.18"/><rect y="36.95" width="2.23" height="4.18"/><rect y="43.22" width="2.23" height="4.18"/><rect y="49.48" width="2.23" height="4.18"/><rect x="43.94" y="57.77" width="4.18" height="2.23"/><polygon points="52.22 57.77 50.21 57.77 50.21 60 54.46 60 54.46 55.75 52.22 55.75 52.22 57.77"/><rect x="37.67" y="57.77" width="4.18" height="2.23"/><rect x="31.41" y="57.77" width="4.18" height="2.23"/><rect x="18.87" y="57.77" width="4.18" height="2.23"/><rect x="25.14" y="57.77" width="4.18" height="2.23"/><path d="M61.77,46.42V10.76H13.58V46.42Zm-20.5-2.23L34,36.95,51.25,19.73,59.53,28V44.19ZM59.53,13V24.85l-8.28-8.28-18.8,18.8L23.05,26l-7.24,7.18V13ZM15.81,36.21a1.08,1.08,0,0,0,.25-.17l7-6.92,8.61,8.61h0l6.45,6.45H15.81Z"/><path d="M9.35,6.53V18.07h-3v2.23h3V50.65H52.22v3h2.23v-3H66V6.53ZM63.77,48.42H11.58V8.77H63.77Z"/></g></g></svg>