<svg id="Layer_1" data-name="Layer 1" xmlns="http://www.w3.org/2000/svg" viewBox="0 0 74 60"><defs><style>.cls-1{fill:#fffffe;}.cls-2{fill:#d9d9d9;}.cls-3{fill:#64faed;}.cls-4{fill:#3971ff;}.cls-5{fill:#fff;}</style></defs><title>icon-web-2</title><g id="Page-1"><g id="website-icon"><g id="Fill-118"><path class="cls-1" d="M68.22,53.06v-37a3.47,3.47,0,0,0-3.47-3.47H9.25a3.47,3.47,0,0,0-3.47,3.47v37"/></g><g id="Stroke-119"><path d="M69.37,50.75H67.06V16.06a2.32,2.32,0,0,0-2.31-2.31H9.25a2.31,2.31,0,0,0-2.31,2.31V50.75H4.63V16.06a4.63,4.63,0,0,1,4.63-4.63h55.5a4.63,4.63,0,0,1,4.63,4.63Z"/></g><g id="Fill-120"><polygon class="cls-2" points="9.25 48.44 64.75 48.44 64.75 16.06 9.25 16.06 9.25 48.44"/></g><g id="Fill-121"><polyline class="cls-1" points="52.96 44.09 58.63 41.25 52.96 38.41 52.96 44.09"/></g><g id="Fill-122"><polygon class="cls-3" points="20.3 44.09 52.96 44.09 52.96 38.41 20.3 38.41 20.3 44.09"/></g><g id="Fill-123"><polygon class="cls-4" points="15.37 44.09 20.3 44.09 20.3 38.41 15.37 38.41 15.37 44.09"/></g><g id="Stroke-124"><path d="M53,45.24H15.37a1.16,1.16,0,0,1-1.16-1.16V38.41a1.16,1.16,0,0,1,1.16-1.16H53a1.16,1.16,0,0,1,.52.12l5.67,2.84a1.16,1.16,0,0,1,0,2.07l-5.67,2.83A1.15,1.15,0,0,1,53,45.24Zm-31.5-2.31H52.68L56,41.25l-3.36-1.68H21.46Zm-4.93,0h2.62V39.57H16.53Z"/></g><g id="Fill-125"><polygon class="cls-5" points="15.37 32.12 58.63 32.12 58.63 20.96 15.37 20.96 15.37 32.12"/></g><g id="Stroke-126"><path d="M59.79,33.28H14.21V19.8H59.79ZM16.53,31H57.47V22.11H16.53Zm39.14-4.71H53.19V23.94h2.47Z"/></g><g id="Stroke-127"><path d="M46,31.85H43.71V27.92H46Zm1.62,0V29.49H50v2.36Zm-21.29,0H24V29.49h2.31Zm27.53,0H51.57V27.92h2.31Zm-11.8,0H39.77V29.49h2.31Zm-3.93,0H35.84V27.92h2.31Zm-3.93,0H31.91V29.49h2.31Zm-3.93,0H28V27.92h2.31Zm-7.87,0H20.11V27.92h2.31Z"/></g><g id="Fill-128"><polyline class="cls-2" points="68.22 58.84 5.78 58.84 1.16 54.22 1.16 51.91 28.91 51.91 31.22 54.22 42.78 54.22 45.09 51.91 72.84 51.91 72.84 54.22 68.22 58.84"/></g><g id="Stroke-129"><path d="M68.7,60H5.3L0,54.7V50.75H29.38l2.31,2.31H42.3l2.31-2.31H74V54.7ZM6.26,57.69H67.74l3.95-3.95v-.68H45.57l-2.31,2.31H30.74l-2.31-2.31H2.31v.68Z"/></g></g></g></svg>