<svg id="Layer_1" data-name="Layer 1" xmlns="http://www.w3.org/2000/svg" viewBox="0 0 70 60"><defs><style>.cls-1{fill:#d9d9d9;}.cls-2{fill:#64faed;}.cls-3{fill:#3971ff;}</style></defs><title>icon-logo-2</title><g id="Page-1"><g id="logo-icon"><g id="Group-3-Copy"><polyline id="Fill-240" class="cls-1" points="33 11 29.37 3.75 25.75 11 33 11"/><polygon id="Fill-241" class="cls-2" points="25.75 11 25.75 52.7 33 52.7 33 11 25.75 11"/><polygon id="Fill-242" class="cls-3" points="25.75 52.7 25.75 59 33 59 33 52.7 25.75 52.7"/><path id="Stroke-243" d="M32,58V11.24L29.37,6l-2.62,5.24V58ZM24.75,10.76l4.63-9.25L34,10.76V60H24.75Zm1.4,42.94v-2h7.24v2Zm0-2h7.24v2H26.15ZM33,10v2H25.86V10Zm0,2H25.86V10H33Z"/><polygon id="Stroke-244" points="30.57 52.28 30.57 11.75 28.57 11.75 28.57 52.28 30.57 52.28"/><polygon id="Fill-245" class="cls-1" points="1 3.13 1 58.38 15.26 58.38 15.26 3.13 1 3.13"/><path id="Stroke-246" d="M0,2.13H16.26V59.38H0ZM2,57.37H14.26V4.14H2ZM7.3,55.53h-2V53.65h2Zm-2,0V53.65h2v1.88Z"/><path id="Stroke-247" d="M14.92,7.15h-5v2h5Zm0,5h-3v2h3Zm0,5h-5v2h5Zm0,5h-3v2h3Zm0,5h-5v2h5Zm0,5h-3v2h3Zm0,5h-5v2h5Zm0,5h-3v2h3Zm0,5h-5v2h5Z"/></g></g></g><g id="Page-1-2" data-name="Page-1"><g id="logo-icon-2" data-name="logo-icon"><g id="Group-3-Copy-2" data-name="Group-3-Copy"><polyline id="Fill-240-2" data-name="Fill-240" class="cls-1" points="33 11 29.37 3.75 25.75 11 33 11"/><polygon id="Fill-241-2" data-name="Fill-241" class="cls-2" points="25.75 11 25.75 52.7 33 52.7 33 11 25.75 11"/><polygon id="Fill-242-2" data-name="Fill-242" class="cls-3" points="25.75 52.7 25.75 59 33 59 33 52.7 25.75 52.7"/><path d="M29.37,1.51l-4.63,9.25V60H34V10.76Zm0,4.49,2,4h-4Zm-2.62,6h1.81V51.7H26.76ZM32,58H26.76V53.71H32Zm0-6.29H30.58V12H32Z"/><polygon id="Fill-245-2" data-name="Fill-245" class="cls-1" points="1 3.13 1 58.38 15.26 58.38 15.26 3.13 1 3.13"/><rect x="5.29" y="53.65" width="2.01" height="1.88"/><path d="M0,2.13V59.38H16.26V2.13ZM2,57.37V4.14H14.26v3H9.89v2h4.36v3H11.9v2h2.35v3H9.89v2h4.36v3H11.9v2h2.35v3H9.89v2h4.36v3H11.9v2h2.35v3H9.89v2h4.36v3H11.9v2h2.35v3H9.89v2h4.36v8Z"/></g></g></g></svg>