<?xml version="1.0" encoding="UTF-8"?>
<svg width="31px" height="54px" viewBox="0 0 31 54" version="1.1" xmlns="http://www.w3.org/2000/svg" xmlns:xlink="http://www.w3.org/1999/xlink">
    <!-- Generator: Sketch 47.1 (45422) - http://www.bohemiancoding.com/sketch -->
    <title>logo-icon</title>
    <desc>Created with Sketch.</desc>
    <defs></defs>
    <g id="Page-1" stroke="none" stroke-width="1" fill="none" fill-rule="evenodd">
        <g id="logo-icon" transform="translate(1.000000, 2.000000)" fill-rule="nonzero">
            <g id="Group-3-Copy" transform="translate(15.000000, 25.500000) rotate(90.000000) translate(-15.000000, -25.500000) translate(-10.500000, 10.500000)">
                <polyline id="Fill-240" fill="#D9D9D9" points="7.297 1.1679 0.8062 4.4142 7.297 7.6596 7.297 1.1679"></polyline>
                <polygon id="Fill-241" fill="#64FAED" points="7.297 7.6596 44.6659 7.6596 44.6659 1.1679 7.297 1.1679"></polygon>
                <polygon id="Fill-242" fill="#3971FF" points="44.6659 7.6596 50.3062 7.6596 50.3062 1.1679 44.6659 1.1679"></polygon>
                <path d="M49.4062,2.0679 L7.50951388,2.0679 L2.81843798,4.4140884 L7.50946118,6.7596 L49.4062,6.7596 L49.4062,2.0679 Z M7.08453882,8.5596 L-1.20603798,4.4143116 L7.08448612,0.2679 L51.2062,0.2679 L51.2062,8.5596 L7.08453882,8.5596 Z M45.5659,7.3059 L43.7659,7.3059 L43.7659,0.8142 L45.5659,0.8142 L45.5659,7.3059 Z M43.7659,7.3059 L43.7659,0.8142 L45.5659,0.8142 L45.5659,7.3059 L43.7659,7.3059 Z M6.397,1.1679 L8.197,1.1679 L8.197,7.5651 L6.397,7.5651 L6.397,1.1679 Z M8.197,1.1679 L8.197,7.5651 L6.397,7.5651 L6.397,1.1679 L8.197,1.1679 Z" id="Stroke-243" fill="#000000"></path>
                <polygon id="Stroke-244" fill="#000000" points="44.287 3.3369 7.9666 3.3369 7.9666 5.1369 44.287 5.1369"></polygon>
                <polygon id="Fill-245" fill="#D9D9D9" points="0.25 29.8347 49.75 29.8347 49.75 17.0601 0.25 17.0601"></polygon>
                <path d="M-0.65,30.7347 L-0.65,16.1601 L50.65,16.1601 L50.65,30.7347 L-0.65,30.7347 Z M48.85,28.9347 L48.85,17.9601 L1.15,17.9601 L1.15,28.9347 L48.85,28.9347 Z M47.1985,24.1953 L47.1985,25.9953 L45.5146,25.9953 L45.5146,24.1953 L47.1985,24.1953 Z M47.1985,25.9953 L45.5146,25.9953 L45.5146,24.1953 L47.1985,24.1953 L47.1985,25.9953 Z" id="Stroke-246" fill="#000000"></path>
                <path d="M3.85,17.3688 L3.85,21.8697 L5.65,21.8697 L5.65,17.3688 L3.85,17.3688 Z M8.34910005,17.3700001 L8.35000005,20.0691001 L10.1499999,20.0684999 L10.1490999,17.3693999 L8.34910005,17.3700001 Z M12.85,17.3697 L12.85,21.8706 L14.65,21.8706 L14.65,17.3697 L12.85,17.3697 Z M17.35,17.3688 L17.35,20.0688 L19.15,20.0688 L19.15,17.3688 L17.35,17.3688 Z M21.85,17.3688 L21.85,21.8697 L23.65,21.8697 L23.65,17.3688 L21.85,17.3688 Z M26.35,17.3697 L26.35,20.0688 L28.15,20.0688 L28.15,17.3697 L26.35,17.3697 Z M30.8491,17.36988 L30.85,21.86988 L32.65,21.86952 L32.6491,17.36952 L30.8491,17.36988 Z M35.3500001,17.3693999 L35.3491001,20.0684999 L37.1490999,20.0691001 L37.1499999,17.3700001 L35.3500001,17.3693999 Z M39.85,17.3688 L39.85,21.8697 L41.65,21.8697 L41.65,17.3688 L39.85,17.3688 Z" id="Stroke-247" fill="#000000"></path>
            </g>
        </g>
    </g>
</svg>