<?xml version="1.0" encoding="utf-8"?>
<!-- Generator: Adobe Illustrator 21.1.0, SVG Export Plug-In . SVG Version: 6.00 Build 0)  -->
<svg version="1.1" id="Layer_1" xmlns="http://www.w3.org/2000/svg" xmlns:xlink="http://www.w3.org/1999/xlink" x="0px" y="0px"
	 viewBox="0 0 419 50" style="enable-background:new 0 0 419 50;" xml:space="preserve">
<style type="text/css">
	.st0{fill:#282829;}
</style>
<g>
	<path class="st0" d="M0,1.1l41.2,0l0,10.4l-14.4,0l0,37.7l-12.5,0l0-37.7L0,11.4L0,1.1z"/>
	<path class="st0" d="M83.5,3.5c4,2.1,7.1,5.1,9.3,8.8c2.3,3.7,3.4,8,3.4,12.6c0,4.7-1.1,9-3.4,12.8c-2.3,3.8-5.4,6.8-9.3,9
		c-4,2.2-8.4,3.3-13.3,3.3c-4.9,0-9.3-1.1-13.3-3.2s-7.1-5.2-9.3-9c-2.3-3.8-3.4-8.1-3.4-12.8c0-4.7,1.1-8.9,3.4-12.6
		C49.9,8.6,53,5.7,57,3.5c4-2.2,8.4-3.2,13.3-3.2C75.1,0.3,79.5,1.4,83.5,3.5z M63.7,12.8c-2,1.2-3.6,2.9-4.8,5.1
		c-1.2,2.2-1.8,4.6-1.8,7.2c0,2.7,0.6,5.1,1.8,7.2c1.2,2.2,2.8,3.9,4.8,5.1c2,1.3,4.2,1.9,6.6,1.9c2.4,0,4.6-0.6,6.5-1.9
		c2-1.3,3.5-3,4.7-5.1c1.1-2.2,1.7-4.6,1.7-7.2c0-2.6-0.6-5-1.7-7.2c-1.1-2.2-2.7-3.9-4.7-5.1c-2-1.2-4.2-1.9-6.6-1.8
		C68,10.9,65.8,11.5,63.7,12.8z"/>
	<path class="st0" d="M105.9,1l13.6,0l13.9,28.1L147.3,1l13.6,0l0,48.1l-11.1,0l-0.1-30.4l-12.3,25.7l-8.1,0l-12.4-25.6l0,30.4
		l-11.2,0L105.9,1z"/>
	<path class="st0" d="M217.3,11.7c-2.9-1-5.3-1.4-7.3-1.4c-1.6,0-2.8,0.3-3.7,0.9c-0.9,0.6-1.3,1.4-1.3,2.5c0,1.1,0.4,1.9,1.2,2.6
		c0.8,0.7,1.7,1.3,2.9,1.7c1.1,0.4,2.8,1,5.1,1.7c3.3,1,6.1,1.9,8.3,2.9c2.2,1,4,2.4,5.6,4.4c1.6,2,2.3,4.6,2.3,7.8
		c0,3.2-0.8,5.9-2.5,8.2c-1.7,2.3-4,4-7,5.1c-3,1.1-6.2,1.7-9.8,1.7c-4,0-7.9-0.7-11.9-2.1c-4-1.4-7.4-3.3-10.3-5.7l4.9-9.8
		c2.4,2.2,5.3,3.9,8.6,5.3c3.3,1.4,6.2,2.1,8.8,2.1c1.9,0,3.3-0.3,4.4-1c1.1-0.7,1.6-1.7,1.6-3c0-1.1-0.4-2-1.2-2.7
		c-0.8-0.7-1.8-1.3-3-1.7c-1.2-0.4-2.9-0.9-5.1-1.5c-3.3-0.9-6-1.8-8.2-2.8c-2.1-0.9-4-2.4-5.5-4.2c-1.5-1.9-2.3-4.4-2.3-7.6
		c0-3,0.8-5.6,2.4-7.8c1.6-2.2,3.8-4,6.7-5.2C203.8,0.6,207.2,0,211,0c3.5,0,6.9,0.5,10.3,1.5c3.4,1,6.4,2.3,8.9,3.9l-4.7,10
		C222.9,13.9,220.2,12.7,217.3,11.7z"/>
	<path class="st0" d="M275.5,5.3c3.4,2.9,5.1,7.1,5.1,12.4c0,5.7-1.7,10.1-5.1,13.2c-3.4,3.1-8.1,4.7-14.3,4.7l-8.6,0l0,13.3
		l-12.6,0l0-48.1l21.1,0C267.3,0.9,272.1,2.4,275.5,5.3z M266.5,23.8c1.4-1.3,2.1-3.1,2.1-5.6c0-2.3-0.7-4.1-2.1-5.4
		c-1.4-1.3-3.4-1.9-5.9-1.9l-8,0l0,14.7l8,0C263.1,25.7,265.1,25,266.5,23.8z"/>
	<path class="st0" d="M290.1,0.9l12.6,0l0,48.1l-12.6,0L290.1,0.9z"/>
	<path class="st0" d="M348.3,0.9l11.7,0l0,48.1l-11,0l-21.8-28.7l0,28.7l-11.7,0l0-48.1l11,0l21.9,28.9L348.3,0.9z"/>
	<path class="st0" d="M419,48.9l-15,0l-12.6-18.6l-6,6.7l0,11.9l-12.6,0l0-48.1l12.6,0l0,20.8l18-20.9l14.5,0l-17.8,19.8L419,48.9z"
		/>
</g>
</svg>
