<?xml version="1.0" encoding="UTF-8"?>
<svg width="60px" height="48px" viewBox="0 0 60 48" version="1.1" xmlns="http://www.w3.org/2000/svg" xmlns:xlink="http://www.w3.org/1999/xlink">
    <!-- Generator: Sketch 47.1 (45422) - http://www.bohemiancoding.com/sketch -->
    <title>print-icon</title>
    <desc>Created with Sketch.</desc>
    <defs></defs>
    <g id="Page-1" stroke="none" stroke-width="1" fill="none" fill-rule="evenodd">
        <g id="print-icon">
            <polygon id="Fill-339" fill="#D9D9D9" fill-rule="nonzero" points="0.532 47.86 49.137 47.86 49.137 10.471 0.532 10.471"></polygon>
            <path d="M10.814,11.405 L6.141,11.405 M4.271,11.405 L1.468,11.405 L1.468,14.209 M1.468,16.079 L1.468,19.817 M1.468,21.687 L1.468,25.426 M1.468,27.296 L1.468,31.035 M1.468,32.904 L1.468,36.643 M1.468,38.512 L1.468,42.251 M1.468,44.12 L1.468,46.924 L4.271,46.924 M6.141,46.924 L9.879,46.924 M11.749,46.924 L15.487,46.924 M17.356,46.924 L21.096,46.924 M22.965,46.924 L26.704,46.924 M28.573,46.924 L32.311,46.924 M34.182,46.924 L37.92,46.924 M39.789,46.924 L43.529,46.924 M45.398,46.924 L48.202,46.924 L48.202,44.12 M48.202,42.251 L48.202,37.578" id="Stroke-340" stroke="#000000" stroke-width="2"></path>
            <polygon id="Fill-341" fill="#FFFFFE" fill-rule="nonzero" points="10.814 37.579 57.549 37.579 57.549 2.059 10.814 2.059"></polygon>
            <polygon id="Fill-342" fill="#D9D9D9" fill-rule="nonzero" points="13.618 34.773 54.745 34.773 54.745 4.862 13.618 4.862"></polygon>
            <polyline id="Fill-343" fill="#3971FF" fill-rule="nonzero" points="36.985 34.773 13.618 34.773 13.618 26.361 21.096 18.883 36.985 34.773"></polyline>
            <polyline id="Fill-344" fill="#64FAED" fill-rule="nonzero" points="36.985 34.773 29.508 27.296 46.332 10.471 54.745 18.883 54.745 34.773 36.985 34.773"></polyline>
            <path d="M33.247,12.34 C33.247,14.405 31.572,16.079 29.508,16.079 C27.443,16.079 25.77,14.405 25.77,12.34 C25.77,10.275 27.443,8.601 29.508,8.601 C31.572,8.601 33.247,10.275 33.247,12.34" id="Fill-345" fill="#000000" fill-rule="nonzero"></path>
            <path d="M8.831,39.561 L8.831,0.076 L59.532,0.076 L59.532,39.561 L8.831,39.561 Z M57.532,37.561 L57.532,2.076 L10.831,2.076 L10.831,37.561 L57.532,37.561 Z M12.618,35.773 L12.618,3.862 L55.745,3.862 L55.745,35.773 L12.618,35.773 Z M53.745,33.773 L53.745,5.862 L14.618,5.862 L14.618,33.773 L53.745,33.773 Z" id="Stroke-346" fill="#000000" fill-rule="nonzero"></path>
            <path d="M36.277871,35.4800845 C36.668383,35.8706211 37.3015479,35.870641 37.6920845,35.480129 C38.0826211,35.089617 38.082641,34.4564521 37.692129,34.0659155 L21.0991801,17.4719222 L13.4350652,25.0677354 C13.0427969,25.4565079 13.0399629,26.0896665 13.4287354,26.4819348 C13.8175079,26.8742031 14.4506665,26.8770371 14.8429348,26.4882646 L21.0928199,20.2940778 L36.277871,35.4800845 Z M54.0379352,19.5901488 C54.4284827,19.9806499 55.0616477,19.9806123 55.4521488,19.5900648 C55.8426499,19.1995173 55.8426123,18.5663523 55.4520648,18.1758512 L46.331937,9.05680745 L28.8008722,26.5889142 C28.4103595,26.9794501 28.4103783,27.6126151 28.8009142,28.0031278 C29.1914501,28.3936405 29.8246151,28.3936217 30.2151278,28.0030858 L46.332063,11.8851925 L54.0379352,19.5901488 Z" id="Stroke-347" fill="#000000" fill-rule="nonzero"></path>
        </g>
    </g>
</svg>