<?xml version="1.0" encoding="UTF-8"?>
<svg width="30px" height="4px" viewBox="0 0 30 4" version="1.1" xmlns="http://www.w3.org/2000/svg" xmlns:xlink="http://www.w3.org/1999/xlink">
    <!-- Generator: Sketch 47.1 (45422) - http://www.bohemiancoding.com/sketch -->
    <title>Stroke-127</title>
    <desc>Created with Sketch.</desc>
    <defs></defs>
    <g id="Page-1" stroke="none" stroke-width="1" fill="none" fill-rule="evenodd">
        <g id="website-icon" transform="translate(-17.000000, -14.000000)" fill-rule="nonzero" fill="#000000">
            <path d="M19.395,17.658 L19.395,14.256 L17.395,14.256 L17.395,17.658 L19.395,17.658 Z M22.7949999,17.65849 L22.7959999,15.61749 L20.7960001,15.61651 L20.7950001,17.65751 L22.7949999,17.65849 Z M26.198,17.658 L26.198,14.256 L24.198,14.256 L24.198,17.658 L26.198,17.658 Z M29.599,17.658 L29.599,15.617 L27.599,15.617 L27.599,17.658 L29.599,17.658 Z M33,17.658 L33,14.256 L31,14.256 L31,17.658 L33,17.658 Z M36.4,17.658 L36.4,15.617 L34.4,15.617 L34.4,17.658 L36.4,17.658 Z M39.8019998,17.6585879 L39.8039998,14.2565879 L37.8040002,14.2554121 L37.8020002,17.6574121 L39.8019998,17.6585879 Z M43.2039999,17.65751 L43.2029999,15.61651 L41.2030001,15.61749 L41.2040001,17.65849 L43.2039999,17.65751 Z M46.604,17.658 L46.604,14.256 L44.604,14.256 L44.604,17.658 L46.604,17.658 Z" id="Stroke-127"></path>
        </g>
    </g>
</svg>