<?xml version="1.0" encoding="UTF-8"?>
<svg width="40px" height="8px" viewBox="0 0 40 8" version="1.1" xmlns="http://www.w3.org/2000/svg" xmlns:xlink="http://www.w3.org/1999/xlink">
    <!-- Generator: Sketch 47.1 (45422) - http://www.bohemiancoding.com/sketch -->
    <title>Stroke-124</title>
    <desc>Created with Sketch.</desc>
    <defs></defs>
    <g id="Page-1" stroke="none" stroke-width="1" fill="none" fill-rule="evenodd">
        <g id="website-icon" transform="translate(-12.000000, -22.000000)" fill-rule="nonzero" fill="#000000">
            <path d="M14.294,27.239 L45.5640611,27.239 L48.470932,25.7864532 L45.5638029,24.332 L14.294,24.332 L14.294,27.239 Z M13.294,22.332 L45.8,22.332 C45.9553277,22.332 46.10852,22.3681836 46.2474323,22.4376822 L51.1544323,24.8926822 C51.8913907,25.2613867 51.8911335,26.3131925 51.1539948,26.6815365 L46.2469948,29.1335365 C46.1081963,29.2028934 45.9551625,29.239 45.8,29.239 L13.294,29.239 C12.7417153,29.239 12.294,28.7912847 12.294,28.239 L12.294,23.332 C12.294,22.7797153 12.7417153,22.332 13.294,22.332 Z M16.557,23.6 L16.557,27.676 L18.557,27.676 L18.557,23.6 L16.557,23.6 Z M18.557,23.6 L18.557,27.676 C18.557,29.0093333 16.557,29.0093333 16.557,27.676 L16.557,23.6 C16.557,22.2666667 18.557,22.2666667 18.557,23.6 Z" id="Stroke-124"></path>
        </g>
    </g>
</svg>