<svg id="Layer_1" data-name="Layer 1" xmlns="http://www.w3.org/2000/svg" viewBox="0 0 40 40"><defs><style>.cls-1{fill:#fff;}</style></defs><title>ts-logo-white</title><path class="cls-1" d="M12.6,12.56v19.2H7.83V12.56H0V8.24H20.43v4.32Z"/><path class="cls-1" d="M36.46,9.54a7.94,7.94,0,0,1,3.19,4.95l-4.77,1a4,4,0,0,0-1.54-2.65,4.91,4.91,0,0,0-3.09-1,4.31,4.31,0,0,0-2.77.84,2.56,2.56,0,0,0-1.05,2.07q0,1.93,2.35,2.39l5.05,1a8.65,8.65,0,0,1,4.55,2.33A6.1,6.1,0,0,1,40,24.88a6.5,6.5,0,0,1-2.56,5.41,10.71,10.71,0,0,1-6.77,2A11.86,11.86,0,0,1,24,30.48a6.92,6.92,0,0,1-3.18-5.18l5-1q.91,3.83,5.26,3.83a5,5,0,0,0,3.09-.84,2.6,2.6,0,0,0,1.09-2.14,2.19,2.19,0,0,0-.61-1.65,4.34,4.34,0,0,0-2.12-.91l-5-.95q-6.18-1.3-6.18-6.74A6.37,6.37,0,0,1,23.82,9.7a10,10,0,0,1,6.53-2A10.15,10.15,0,0,1,36.46,9.54Z"/></svg>