<?xml version="1.0" encoding="UTF-8"?>
<svg width="33px" height="24px" viewBox="0 0 33 24" version="1.1" xmlns="http://www.w3.org/2000/svg" xmlns:xlink="http://www.w3.org/1999/xlink">
    <!-- Generator: Sketch 48 (47235) - http://www.bohemiancoding.com/sketch -->
    <title>icon/behance</title>
    <desc>Created with Sketch.</desc>
    <defs></defs>
    <g id="Export" stroke="none" stroke-width="1" fill="none" fill-rule="evenodd">
        <g id="icon/behance" fill="#FFFFFF">
            <g id="Group" transform="translate(0.000000, 3.000000)">
                <polygon id="Fill-169" points="20.7353108 3.55377906 28.529052 3.55377906 28.529052 1.70140205 20.7353108 1.70140205"></polygon>
                <path d="M25.3246442,6.90812737 C27.2014888,6.90812737 28.0463124,7.6741704 28.4008738,9.50530531 L22.1161935,9.50530531 C22.1697779,8.48867195 22.8771611,6.90812737 25.3246442,6.90812737 M18.2525521,11.132317 C18.2525521,15.2025014 20.9999686,18.052593 25.4342486,18.052593 C28.6186908,18.052593 30.6260167,17.1584336 31.7123179,14.0537688 L28.6186908,14.0537688 C28.3740817,14.8689341 27.1211122,15.3302859 25.5692534,15.3302859 C23.4206596,15.3302859 22.2240581,14.4865765 22.1161935,12.1950855 L32.2627754,12.1950855 C32.5345247,8.14979417 30.2213504,4.18416067 25.4342486,4.18416067 C21.1645491,4.18416067 18.2525521,7.18692985 18.2525521,11.132317" id="Fill-170"></path>
                <path d="M4.77898516,15.0813177 L4.77898516,10.0927446 L9.42934241,10.0927446 C11.2529505,10.0927446 12.5027884,10.832235 12.5027884,12.6889268 C12.5027884,14.5734988 11.0351336,15.0813177 9.34826996,15.0813177 L4.77898516,15.0813177 Z M4.77898516,3.12168661 L8.77763129,3.12168661 C10.2999143,3.12168661 11.7153766,3.47915123 11.7153766,5.21005002 C11.7153766,6.73516601 10.5991517,7.37076931 9.10366082,7.37076931 L4.77898516,7.37076931 L4.77898516,3.12168661 Z M17.1430551,13.0609953 C17.1430551,10.7973847 15.9464536,9.0933704 13.5772593,8.45677138 C15.2658626,7.69238789 16.2178549,6.44707011 16.2178549,4.6637299 C16.2178549,1.28026255 13.7146997,0.0462296324 10.0163347,0.0462296324 L0.873241799,0.0462296324 L0.873241799,18.3306943 L10.2856484,18.3306943 C13.7950762,18.3306943 17.1430551,16.7514773 17.1430551,13.0609953 L17.1430551,13.0609953 Z" id="Fill-171"></path>
            </g>
        </g>
    </g>
</svg>