<?xml version="1.0" encoding="UTF-8"?>
<svg width="27px" height="24px" viewBox="0 0 27 24" version="1.1" xmlns="http://www.w3.org/2000/svg" xmlns:xlink="http://www.w3.org/1999/xlink">
    <!-- Generator: Sketch 48 (47235) - http://www.bohemiancoding.com/sketch -->
    <title>icon/linkedin</title>
    <desc>Created with Sketch.</desc>
    <defs></defs>
    <g id="Export" stroke="none" stroke-width="1" fill="none" fill-rule="evenodd">
        <g id="icon/linkedin" fill="#FFFFFF">
            <g id="Group">
                <path d="M3.60087992,6.4000001 C5.36769514,6.4000001 6.80002451,4.96895194 6.80002451,3.20172006 C6.80002451,1.43292453 5.36769514,0 3.60087992,0 C1.83235379,0 0.400024414,1.43292453 0.400024414,3.20172006 C0.400024414,4.96895194 1.83235379,6.4000001 3.60087992,6.4000001" id="Fill-182"></path>
                <polygon id="Fill-183" points="0.710785033 23.8479977 6.40173147 23.8479977 6.40173147 8.44827586 0.710785033 8.44827586"></polygon>
                <path d="M15.3924021,15.5167806 C15.3924021,13.750766 16.2829376,12.0237837 18.4123072,12.0237837 C20.5416767,12.0237837 21.0652551,13.750766 21.0652551,15.474562 L21.0652551,23.8851037 L26.7307576,23.8851037 L26.7307576,15.1307056 C26.7307576,9.04856288 22.8989102,8 20.5416767,8 C18.1864221,8 16.887371,8.7474562 15.3924021,10.5586103 L15.3924021,8.48538186 L9.71078503,8.48538186 L9.71078503,23.8851037 L15.3924021,23.8851037 L15.3924021,15.5167806 Z" id="Fill-184"></path>
            </g>
        </g>
    </g>
</svg>