<?xml version="1.0" encoding="UTF-8"?>
<svg width="50px" height="50px" viewBox="0 0 50 50" version="1.1" xmlns="http://www.w3.org/2000/svg" xmlns:xlink="http://www.w3.org/1999/xlink">
    <!-- Generator: Sketch 47.1 (45422) - http://www.bohemiancoding.com/sketch -->
    <title>sm-behance</title>
    <desc>Created with Sketch.</desc>
    <defs></defs>
    <g id="One-page-Visual" stroke="none" stroke-width="1" fill="none" fill-rule="evenodd">
        <g id="sm-behance" fill="#000000">
            <g id="Behance">
                <path d="M25,50 C11.1928813,50 0,38.8071187 0,25 C0,11.1928813 11.1928813,0 25,0 C38.8071187,0 50,11.1928813 50,25 C50,38.8071187 38.8071187,50 25,50 Z M25,49.0196078 C38.2656631,49.0196078 49.0196078,38.2656631 49.0196078,25 C49.0196078,11.7343369 38.2656631,0.980392157 25,0.980392157 C11.7343369,0.980392157 0.980392157,11.7343369 0.980392157,25 C0.980392157,38.2656631 11.7343369,49.0196078 25,49.0196078 Z" id="Oval-1-Copy-14" fill-rule="nonzero"></path>
                <g id="Group-2" transform="translate(12.857143, 17.142857)">
                    <polygon id="Fill-169" points="16.4285714 3.69473744 22.6505159 3.69473744 22.6505159 2.14285714 16.4285714 2.14285714"></polygon>
                    <path d="M19.2172619,6.56779305 C20.7155952,6.56779305 21.3900397,7.20956688 21.6730952,8.74365102 L16.655873,8.74365102 C16.6986508,7.89193818 17.263373,6.56779305 19.2172619,6.56779305 M13.5714286,10.1067252 C13.5714286,13.5166353 15.7647619,15.9043787 19.3047619,15.9043787 C21.8469841,15.9043787 23.4494841,15.1552719 24.3167063,12.5542526 L21.8469841,12.5542526 C21.6517063,13.2371801 20.6514286,13.6236903 19.4125397,13.6236903 C17.6972619,13.6236903 16.7419841,12.9168493 16.655873,10.9970891 L24.7561508,10.9970891 C24.9730952,7.60803391 23.1264286,4.28571429 19.3047619,4.28571429 C15.8961508,4.28571429 13.5714286,6.80136758 13.5714286,10.1067252" id="Fill-170"></path>
                    <path d="M3.11805556,12.5960626 L3.11805556,8.41674695 L6.83055556,8.41674695 C8.28638889,8.41674695 9.28416667,9.03627558 9.28416667,10.5917707 C9.28416667,12.1706233 8.1125,12.5960626 6.76583333,12.5960626 L3.11805556,12.5960626 Z M3.11805556,2.57654951 L6.31027778,2.57654951 C7.52555556,2.57654951 8.65555556,2.87602543 8.65555556,4.32613397 C8.65555556,5.60384226 7.76444444,6.13633657 6.57055556,6.13633657 L3.11805556,6.13633657 L3.11805556,2.57654951 Z M12.9886111,10.9034815 C12.9886111,9.00707877 12.0333333,7.57949349 10.1419444,7.04616498 C11.49,6.40578148 12.25,5.36248191 12.25,3.86843912 C12.25,1.03384536 10.2516667,0 7.29916667,0 L0,0 L0,15.3183182 L7.51416667,15.3183182 C10.3158333,15.3183182 12.9886111,13.9952853 12.9886111,10.9034815 L12.9886111,10.9034815 Z" id="Fill-171"></path>
                </g>
            </g>
        </g>
    </g>
</svg>