<?xml version="1.0" encoding="UTF-8"?>
<svg width="50px" height="50px" viewBox="0 0 50 50" version="1.1" xmlns="http://www.w3.org/2000/svg" xmlns:xlink="http://www.w3.org/1999/xlink">
    <!-- Generator: Sketch 47.1 (45422) - http://www.bohemiancoding.com/sketch -->
    <title>sm-facebook</title>
    <desc>Created with Sketch.</desc>
    <defs></defs>
    <g id="One-page-Visual" stroke="none" stroke-width="1" fill="none" fill-rule="evenodd">
        <g id="sm-facebook" fill="#000000">
            <g id="Facebook">
                <path d="M25,50 C11.1928813,50 0,38.8071187 0,25 C0,11.1928813 11.1928813,0 25,0 C38.8071187,0 50,11.1928813 50,25 C50,38.8071187 38.8071187,50 25,50 Z M25,49.0196078 C38.2656631,49.0196078 49.0196078,38.2656631 49.0196078,25 C49.0196078,11.7343369 38.2656631,0.980392157 25,0.980392157 C11.7343369,0.980392157 0.980392157,11.7343369 0.980392157,25 C0.980392157,38.2656631 11.7343369,49.0196078 25,49.0196078 Z" id="Oval-1" fill-rule="nonzero"></path>
                <path d="M21.5634921,37.1686996 L26.1168254,37.1686996 L26.1168254,24.6618958 L29.5326587,24.6618958 L30.2082143,20.7539715 L26.1168254,20.7539715 L26.1168254,17.9221584 C26.1168254,17.0092712 26.7071032,16.0507815 27.5507143,16.0507815 L29.8759921,16.0507815 L29.8759921,12.1428571 L27.0262698,12.1428571 L27.0262698,12.1603752 C22.567381,12.322209 21.6512698,14.9045979 21.5718254,17.6171211 L21.5634921,17.6171211 L21.5634921,20.7539715 L19.2857143,20.7539715 L19.2857143,24.6618958 L21.5634921,24.6618958 L21.5634921,37.1686996 Z" id="Fill-4"></path>
            </g>
        </g>
    </g>
</svg>