<?xml version="1.0" encoding="UTF-8"?>
<svg width="50px" height="50px" viewBox="0 0 50 50" version="1.1" xmlns="http://www.w3.org/2000/svg" xmlns:xlink="http://www.w3.org/1999/xlink">
    <!-- Generator: Sketch 47.1 (45422) - http://www.bohemiancoding.com/sketch -->
    <title>sm-linkedin</title>
    <desc>Created with Sketch.</desc>
    <defs></defs>
    <g id="One-page-Visual" stroke="none" stroke-width="1" fill="none" fill-rule="evenodd">
        <g id="sm-linkedin" fill="#000000">
            <g id="Linkedin">
                <path d="M25,50 C11.1928813,50 0,38.8071187 0,25 C0,11.1928813 11.1928813,0 25,0 C38.8071187,0 50,11.1928813 50,25 C50,38.8071187 38.8071187,50 25,50 Z M25,49.0196078 C38.2656631,49.0196078 49.0196078,38.2656631 49.0196078,25 C49.0196078,11.7343369 38.2656631,0.980392157 25,0.980392157 C11.7343369,0.980392157 0.980392157,11.7343369 0.980392157,25 C0.980392157,38.2656631 11.7343369,49.0196078 25,49.0196078 Z" id="Oval-1-Copy-5" fill-rule="nonzero"></path>
                <path d="M15.2609127,18.5477414 C16.9820238,18.5477414 18.3773016,17.2753163 18.3773016,15.7039715 C18.3773016,14.1312363 16.9820238,12.8571429 15.2609127,12.8571429 C13.5381349,12.8571429 12.1428571,14.1312363 12.1428571,15.7039715 C12.1428571,17.2753163 13.5381349,18.5477414 15.2609127,18.5477414" id="Fill-182"></path>
                <polygon id="Fill-183" points="12.8571429 36.8412167 18.4488095 36.8412167 18.4488095 20.7142857 12.8571429 20.7142857"></polygon>
                <path d="M26.2967857,27.8717397 C26.2967857,26.02233 27.1717857,24.2137957 29.2640079,24.2137957 C31.3562302,24.2137957 31.8706746,26.02233 31.8706746,27.8275274 L31.8706746,36.6352336 L37.4373413,36.6352336 L37.4373413,27.4674333 C37.4373413,21.0980784 33.6723413,20 31.3562302,20 C29.0420635,20 27.7656746,20.7827527 26.2967857,22.6794335 L26.2967857,20.5083027 L20.7142857,20.5083027 L20.7142857,36.6352336 L26.2967857,36.6352336 L26.2967857,27.8717397 Z" id="Fill-184"></path>
            </g>
        </g>
    </g>
</svg>