<?xml version="1.0" encoding="UTF-8"?>
<svg width="25px" height="24px" viewBox="0 0 25 24" version="1.1" xmlns="http://www.w3.org/2000/svg" xmlns:xlink="http://www.w3.org/1999/xlink">
    <!-- Generator: Sketch 48 (47235) - http://www.bohemiancoding.com/sketch -->
    <title>icon/twitter</title>
    <desc>Created with Sketch.</desc>
    <defs></defs>
    <g id="Export" stroke="none" stroke-width="1" fill="none" fill-rule="evenodd">
        <g id="icon/twitter" fill="#FFFFFF">
            <path d="M24.0132981,3.41820387 C23.2951346,3.84980674 21.6462424,4.47698371 20.8330562,4.47698371 L20.8330562,4.47827207 C19.9045244,3.56816976 18.5972747,3 17.1474908,3 C14.331686,3 12.0483931,5.14229632 12.0483931,7.7831906 C12.0483931,8.15011747 12.0937075,8.50802577 12.1774703,8.85124668 L12.1766464,8.85124668 C8.35706055,8.75719591 4.1796288,6.96095491 1.66482093,3.88665404 C0.118641149,6.39768094 1.45664966,9.19034483 3.21127535,10.2078969 C2.61065454,10.250413 1.50498494,10.1429632 0.984556755,9.6665252 C0.949678454,11.3331565 1.80378487,13.5414172 4.91811503,14.3425237 C4.31831811,14.6452899 3.25658968,14.558454 2.7949328,14.4940356 C2.95696585,15.9009322 5.05680433,17.7402046 7.3530049,17.7402046 C6.53460068,18.6284047 3.45542346,20.2393786 0,19.7268662 C2.34673291,21.06651 5.08179587,21.8423645 7.97669483,21.8423645 C16.203305,21.8423645 22.592076,15.5868283 22.2482363,7.86976885 C22.2468632,7.86126563 22.2468632,7.85276241 22.2460393,7.84348617 C22.2468632,7.82364532 22.2482363,7.80380447 22.2482363,7.7831906 C22.2482363,7.75922698 22.2460393,7.73655172 22.2452154,7.71336112 C22.9941376,7.2328003 23.9990172,6.38273588 24.716906,5.26391815 C24.3005634,5.47907541 23.0515358,5.90990527 21.8892919,6.01683971 C22.6351932,5.63909056 23.7403136,4.40200076 24.0132981,3.41820387" id="Fill-1"></path>
        </g>
    </g>
</svg>